<svg xml:space="preserve" style="enable-background:new 0 0 1200 1200;" viewBox="0 0 1200 1200" y="0px" x="0px" xmlns:xlink="http://www.w3.org/1999/xlink" xmlns="http://www.w3.org/2000/svg" id="图层_1" version="1.1">
<style type="text/css">
	.st0{fill-rule:evenodd;clip-rule:evenodd;fill:url(#SVGID_1_);}
	.st1{fill-rule:evenodd;clip-rule:evenodd;fill:url(#SVGID_00000046341215548728013050000000250107633785010835_);}
	.st2{fill-rule:evenodd;clip-rule:evenodd;fill:url(#SVGID_00000041987736802611446640000017893914638349861563_);}
	.st3{fill-rule:evenodd;clip-rule:evenodd;fill:url(#SVGID_00000136378691396441805860000014029109845003320490_);}
	.st4{fill-rule:evenodd;clip-rule:evenodd;fill:url(#SVGID_00000134241475700248587580000006695852428767083430_);}
	.st5{fill-rule:evenodd;clip-rule:evenodd;fill:#3D3F47;}
	.st6{fill-rule:evenodd;clip-rule:evenodd;fill:#323A4C;}
	.st7{fill-rule:evenodd;clip-rule:evenodd;fill:url(#SVGID_00000180351448615010248630000004060209281392354710_);}
	.st8{fill-rule:evenodd;clip-rule:evenodd;fill:url(#SVGID_00000147217097946973945200000008741006934548147096_);}
	.st9{fill-rule:evenodd;clip-rule:evenodd;fill:url(#SVGID_00000125577254539798047330000003574697323123485858_);}
	.st10{fill-rule:evenodd;clip-rule:evenodd;fill:url(#SVGID_00000127722417789709975980000002054821057255516858_);}
	.st11{fill-rule:evenodd;clip-rule:evenodd;fill:url(#SVGID_00000150073689304018949840000008000002287711098036_);}
	.st12{fill-rule:evenodd;clip-rule:evenodd;fill:#373E54;}
	.st13{fill-rule:evenodd;clip-rule:evenodd;fill:#3A302E;}
	.st14{fill:#FFCBBB;}
	.st15{fill-rule:evenodd;clip-rule:evenodd;fill:#FFF9F8;}
	.st16{fill-rule:evenodd;clip-rule:evenodd;fill:#2E3444;}
	.st17{fill-rule:evenodd;clip-rule:evenodd;fill:#1E3768;}
	.st18{fill:#FFB094;}
	.st19{fill-rule:evenodd;clip-rule:evenodd;fill:#FCC9BB;}
	.st20{fill-rule:evenodd;clip-rule:evenodd;fill:#193054;}
	.st21{fill-rule:evenodd;clip-rule:evenodd;fill:#D8D8D8;}
	.st22{fill-rule:evenodd;clip-rule:evenodd;fill:#D1D1D1;}
	.st23{fill-rule:evenodd;clip-rule:evenodd;fill:#EAEAEA;}
	.st24{fill-rule:evenodd;clip-rule:evenodd;fill:#303644;}
	.st25{fill-rule:evenodd;clip-rule:evenodd;fill:url(#SVGID_00000084506166260541272470000015645166884214627006_);}
	.st26{filter:url(#Adobe_OpacityMaskFilter);}
	.st27{fill-rule:evenodd;clip-rule:evenodd;fill:#FFFFFF;}
	.st28{mask:url(#mask-2_00000038388877576798648400000012504312289314174085_);fill-rule:evenodd;clip-rule:evenodd;fill:#32333F;}
	.st29{fill-rule:evenodd;clip-rule:evenodd;fill:#32333F;}
	.st30{fill:#32333F;}
</style>
<g>
	<g>
		<linearGradient y2="527.2284" x2="866.9613" y1="671.1686" x1="805.6132" gradientUnits="userSpaceOnUse" id="SVGID_1_">
			<stop style="stop-color:#FFDBD4" offset="4.984026e-07"></stop>
			<stop style="stop-color:#FFD1BF" offset="1"></stop>
		</linearGradient>
		<path d="M796.75,534.04c0,0,86.73-46.44,108.73-4.56c22,41.87-31.54,182.26-108.73,152.86V534.04z" class="st0"></path>
		
			<linearGradient y2="669.6576" x2="851.3836" y1="537.7574" x1="853.9225" gradientUnits="userSpaceOnUse" id="SVGID_00000143592322349131936830000004047132257036689303_">
			<stop style="stop-color:#FAC1B6" offset="2.587860e-07"></stop>
			<stop style="stop-color:#FFDED1" offset="1"></stop>
		</linearGradient>
		<path d="M852.46,537.78c0,0,45.81-12.62,42.94,22.46c-2.87,35.09-23.41,106.52-86.01,109L852.46,537.78z" style="fill-rule:evenodd;clip-rule:evenodd;fill:url(#SVGID_00000143592322349131936830000004047132257036689303_);"></path>
		
			<linearGradient y2="669.6657" x2="851.3836" y1="537.7654" x1="853.9225" gradientUnits="userSpaceOnUse" id="SVGID_00000129917246209767936700000004528402548635957425_">
			<stop style="stop-color:#FAC1B6" offset="2.587860e-07"></stop>
			<stop style="stop-color:#FFDED1" offset="1"></stop>
		</linearGradient>
		<path d="M852.46,537.79c0,0,45.81-12.62,42.94,22.46c-2.87,35.09-23.41,106.52-86.01,109L852.46,537.79z" style="fill-rule:evenodd;clip-rule:evenodd;fill:url(#SVGID_00000129917246209767936700000004528402548635957425_);"></path>
	</g>
	<g>
		
			<linearGradient gradientTransform="matrix(-1 0 0 1 1717.3657 0)" y2="527.2284" x2="1382.339" y1="671.1686" x1="1320.9908" gradientUnits="userSpaceOnUse" id="SVGID_00000061466232827444737180000010035974264437124233_">
			<stop style="stop-color:#FFDBD4" offset="4.984026e-07"></stop>
			<stop style="stop-color:#FFD1BF" offset="1"></stop>
		</linearGradient>
		<path d="M405.24,682.34c-77.19,29.4-130.72-110.98-108.73-152.86c22-41.87,108.73,4.56,108.73,4.56V682.34z" style="fill-rule:evenodd;clip-rule:evenodd;fill:url(#SVGID_00000061466232827444737180000010035974264437124233_);"></path>
		
			<linearGradient gradientTransform="matrix(-1 0 0 1 1717.3657 0)" y2="669.6576" x2="1366.7614" y1="537.7574" x1="1369.3003" gradientUnits="userSpaceOnUse" id="SVGID_00000156586591422187364570000015947859250509813165_">
			<stop style="stop-color:#FAC1B6" offset="2.587860e-07"></stop>
			<stop style="stop-color:#FFDED1" offset="1"></stop>
		</linearGradient>
		<path d="M349.52,537.78c0,0-45.81-12.62-42.94,22.46s23.41,106.52,86.01,109L349.52,537.78z" style="fill-rule:evenodd;clip-rule:evenodd;fill:url(#SVGID_00000156586591422187364570000015947859250509813165_);"></path>
	</g>
	<path d="M811.35,419.95l28.92,131.1c0,0,2.98-5.44,11.62-17.95c20.62-29.86,10.69-137.39,10.69-137.39L811.35,419.95z" class="st5"></path>
	<path d="M371.01,441.41l4.27,115.12l-12.48,14.1c0,0-47.97-71.25-20.56-165.93
		C369.66,310.03,371.01,441.41,371.01,441.41z" class="st5"></path>
	<path d="M499.58,858.11c-43.98,23.7-115.05,72.92-136.42,78.58c-72.03,19.09-143.11,73.59-192.15,263.31l857.97,0
		c0,0-62.61-203.64-174.81-259.32c-32.23-14.71-107.19-53.3-144.64-79.27c-29.73-16.3-52.8,69.39-115.56,73.3
		C540.1,938.06,519.02,864.85,499.58,858.11z" class="st6"></path>
	
		<linearGradient y2="826.3212" x2="605.2003" y1="959.6361" x1="603.2576" gradientUnits="userSpaceOnUse" id="SVGID_00000016798026766497744140000010750129308309735062_">
		<stop style="stop-color:#FFDBD4" offset="9.920130e-07"></stop>
		<stop style="stop-color:#FFBFAA" offset="1"></stop>
	</linearGradient>
	<path d="M697.31,825.17l-96.25,1.38l-96.25-1.38c0,0,2.5,58.33-8.24,99.97c-5.51,21.37,14.77,39.85,36.83,39.85h64.99h5.34h74.43
		c23.62,0,37.99-21.34,32.29-44.26C700.16,879.44,697.31,825.17,697.31,825.17z" style="fill-rule:evenodd;clip-rule:evenodd;fill:url(#SVGID_00000016798026766497744140000010750129308309735062_);"></path>
	
		<linearGradient y2="893.6771" x2="602.2466" y1="1116.3531" x1="605.4915" gradientUnits="userSpaceOnUse" id="SVGID_00000107546615423431002630000005038854391271723914_">
		<stop style="stop-color:#E3D6D3" offset="8.769970e-07"></stop>
		<stop style="stop-color:#DEDEDE" offset="1"></stop>
	</linearGradient>
	
		<polygon points="505.94,895.08 592.76,1116.16 618.77,1116.16 698.63,897.33" style="fill-rule:evenodd;clip-rule:evenodd;fill:url(#SVGID_00000107546615423431002630000005038854391271723914_);"></polygon>
	
		<linearGradient y2="849.879" x2="505.0689" y1="849.879" x1="501.1953" gradientUnits="userSpaceOnUse" id="SVGID_00000104695672860373737480000003580277204525131404_">
		<stop style="stop-color:#FFDBD4" offset="9.920130e-07"></stop>
		<stop style="stop-color:#FFDCD1" offset="1"></stop>
	</linearGradient>
	<path d="M504.92,853.88c-8.46-1.06,0.15-8,0.15-8L504.92,853.88z" style="fill-rule:evenodd;clip-rule:evenodd;fill:url(#SVGID_00000104695672860373737480000003580277204525131404_);"></path>
	
		<linearGradient gradientTransform="matrix(-1 0 0 1 7286.0684 0)" y2="849.0447" x2="6587.4385" y1="849.0447" x1="6582.5356" gradientUnits="userSpaceOnUse" id="SVGID_00000013192259205850254820000011164254506026844849_">
		<stop style="stop-color:#FFDBD4" offset="9.920130e-07"></stop>
		<stop style="stop-color:#FFDCD1" offset="1"></stop>
	</linearGradient>
	<path d="M698.63,844.39c0,0,10.37,9.79,0.94,9.3L698.63,844.39z" style="fill-rule:evenodd;clip-rule:evenodd;fill:url(#SVGID_00000013192259205850254820000011164254506026844849_);"></path>
	
		<linearGradient y2="856.4008" x2="595.5104" y1="222.9075" x1="607.7046" gradientUnits="userSpaceOnUse" id="SVGID_00000073703804085282173710000004305268165643584185_">
		<stop style="stop-color:#FFDBD4" offset="4.984026e-07"></stop>
		<stop style="stop-color:#FFD1BF" offset="1"></stop>
	</linearGradient>
	<path d="M840.83,595.02c0,24.6-5.19,54.74-10.68,79.78c-6.77,30.84-20.94,59.57-41.32,83.7l-17.52,20.74
		c-25.28,29.93-59.02,51.51-96.79,61.91l-52.23,14.38c-14.01,3.86-28.81,3.84-42.81-0.04l-53.78-14.91
		c-36.26-10.05-68.92-30.21-94.18-58.11l-17-18.79c-17.11-18.9-29.52-39.55-36.31-64.12c-8.1-29.33-17.28-71.78-17.28-104.54
		c0-212.17,10.1-384.17,239.96-384.17C805.79,210.85,840.83,382.85,840.83,595.02z" style="fill-rule:evenodd;clip-rule:evenodd;fill:url(#SVGID_00000073703804085282173710000004305268165643584185_);"></path>
	<path d="M482.46,864.8" class="st12"></path>
	<path d="M678.18,522.01c-0.09-21.18,13.95-24.81,26.36-28.44c9.83-2.87,42.97-16.2,76.51-8.85
		c14.86,3.26,19.86,10.69-1.12,14.76c-28.07,5.44-45.78,11.85-57.3,15.39C704.52,520.44,678.23,533.33,678.18,522.01z" class="st13"></path>
	<path d="M486.32,514.87c-11.53-3.54-29.23-9.96-57.3-15.39c-20.98-4.06-15.97-11.5-1.12-14.76
		c33.54-7.35,66.68,5.97,76.51,8.85c12.41,3.63,26.46,7.26,26.36,28.44C530.73,533.33,504.44,520.44,486.32,514.87z" class="st13"></path>
	<path d="M620.78,696.4c0,6.54-10.21,11.84-22.8,11.84c-12.59,0-22.8-5.3-22.8-11.84c0-6.54,10.21-19.94,22.8-19.94
		C610.58,676.46,620.78,689.86,620.78,696.4z" class="st14"></path>
	<g>
		<g>
			<path d="M484.33,537.07c-10.97,0-20.72,7.31-26.98,18.67l5.42,5.48h-8.03c-2.92,7.13-4.6,15.4-4.6,24.24
				c0,26.73,15.31,48.4,34.2,48.4c18.89,0,34.2-21.67,34.2-48.4C518.53,558.74,503.21,537.07,484.33,537.07z" class="st13"></path>
			<ellipse ry="14.19" rx="7.94" cy="576.43" cx="495.52" class="st15"></ellipse>
		</g>
		<g>
			<path d="M717.41,537.07c10.97,0,20.72,7.31,26.98,18.67l-5.42,5.48l9.82,5.02c2.92,7.13,2.81,10.39,2.81,19.22
				c0,26.73-15.31,48.4-34.2,48.4c-18.89,0-34.2-21.67-34.2-48.4C683.21,558.74,698.52,537.07,717.41,537.07z" class="st13"></path>
			<ellipse ry="14.19" rx="7.94" cy="576.43" cx="701.53" class="st15"></ellipse>
		</g>
	</g>
	<path d="M370.11,1059.89c0,0-71.19,24.58-84.18,140.11h40.4C326.32,1200,333.14,1129.97,370.11,1059.89z" class="st16"></path>
	<path d="M817.75,1066.56c0,0,66.02,72.41,78.01,133.44h-46.46C849.29,1200,854.72,1136.64,817.75,1066.56z" class="st16"></path>
	<polygon points="579.75,928.34 546.01,1084.95 599.96,1113.64 663.29,1077.98 628.31,929.02" class="st17"></polygon>
	<g>
		<path d="M569.48,768.93c-1.92,0-3.75-1.11-4.58-2.99c-1.11-2.53,0.04-5.48,2.56-6.59
			c39.98-17.59,71.3-0.52,72.62,0.21c2.41,1.35,3.27,4.4,1.92,6.8c-1.34,2.41-4.38,3.27-6.79,1.93l0,0
			c-1.15-0.63-28.46-15.31-63.72,0.21C570.83,768.79,570.15,768.93,569.48,768.93z" class="st18"></path>
	</g>
	<path d="M583.45,776.3c8.79,1.15,24.43,2.56,38.66,0.47c2-0.29,3.02,2.3,1.34,3.42c-4.76,3.16-11.73,6.73-19.39,7.14
		c-8.41,0.45-16.66-3.99-21.93-7.62C580.51,778.58,581.49,776.04,583.45,776.3z" class="st19"></path>
	<path d="M579.53,929.66l-0.74,3.42c-0.12,0.55,0.29,1.06,0.85,1.07l48.4,0.78c0.85,0.01,1.48-0.78,1.28-1.6
		l-0.72-2.97L579.53,929.66z" class="st20"></path>
	<path d="M511.21,901.57c0,0,44.32,32.5,52.99,32.83c8.67,0.34,11.58-13.74,11.58-13.74l-4.3-10.73L511.21,901.57z" class="st21"></path>
	<path d="M697.8,901.57c0,0-44.32,32.5-52.99,32.83c-8.67,0.34-11.58-13.74-11.58-13.74l4.3-10.73L697.8,901.57z" class="st22"></path>
	<path d="M579.63,878c0,0,40.58,2.5,49.16-0.22l7.18,29.13l-7.11,22.9c-0.33,1.05-1.3,1.75-2.4,1.74l-45.05-0.65
		c-1.01-0.01-1.9-0.64-2.27-1.58l-8.17-20.99L579.63,878z" class="st17"></path>
	<path d="M501.17,851.96c0,0-13.38,26.96-10.62,34.82c2.76,7.87,68.68,40.84,75.93,39.03
		c5.75-1.44,10.01-26.07,13.56-47.14c0.23-1.37-0.72-2.64-2.1-2.84C537.21,870.16,501.17,851.96,501.17,851.96z" class="st23"></path>
	<path d="M703.33,851.93c1.82-0.5,17.04,28.66,14.85,34.89c-2.76,7.87-68.68,40.84-75.93,39.03
		c-5.76-1.44-12.09-12.36-13.64-46.4c-0.1-2.2,1.59-4.05,3.78-4.19C666.46,873.05,703.33,851.93,703.33,851.93z" class="st23"></path>
	<path d="M703.33,851.05c37.06,24.5,57.21,36.76,57.21,36.76c8.82,5.25,7.98,18.28-1.43,22.37l-46.21,20.05
		l33.77,42.82c3.68,4.67,3.6,11.28-0.2,15.85c0,0-98.34,123.33-164.14,153.7C600,1118.88,716.59,895.08,703.33,851.05z" class="st24"></path>
	<path d="M501.17,851.05c-6.66,6.25-30.53,25.96-52.71,41.55c-9.35,6.57-14.13,16.99-3.14,20.13l44.89,12.84
		l-33.27,42.18c-3.98,5.04-3.88,12.18,0.22,17.11l129.67,149.77l13.16-21.79C600,1112.83,510.24,945.13,501.17,851.05z" class="st24"></path>
	
		<linearGradient y2="845.675" x2="698.8567" y1="845.675" x1="698.8567" gradientUnits="userSpaceOnUse" id="SVGID_00000060010797968473525830000000316820262123926685_">
		<stop style="stop-color:#FFDBD4" offset="9.920130e-07"></stop>
		<stop style="stop-color:#FFDCD1" offset="1"></stop>
	</linearGradient>
	<path d="M698.86,845.68" style="fill-rule:evenodd;clip-rule:evenodd;fill:url(#SVGID_00000060010797968473525830000000316820262123926685_);"></path>
	<polygon points="582.33,1142.6 580.26,1200 590.74,1200" class="st24"></polygon>
	<circle r="6.08" cy="1152.29" cx="600.25" class="st24"></circle>
	<circle r="6.08" cy="1185.87" cx="600.25" class="st24"></circle>
	<defs>
		<filter height="394.59" width="656.61" y="119.52" x="276.35" filterUnits="userSpaceOnUse" id="Adobe_OpacityMaskFilter">
			<feColorMatrix values="1 0 0 0 0  0 1 0 0 0  0 0 1 0 0  0 0 0 1 0" type="matrix"></feColorMatrix>
		</filter>
	</defs>
	
		<mask id="mask-2_00000038388877576798648400000012504312289314174085_" height="394.59" width="656.61" y="119.52" x="276.35" maskUnits="userSpaceOnUse">
		<g class="st26">
			<polygon points="226.26,1204.42 984.33,1204.42 
				984.33,119.52 226.26,119.52" class="st27" id="path-1_00000059282424604289278350000006540706626530273466_"></polygon>
		</g>
	</mask>
	<path d="M276.35,403.31
		c13.11-71.91,44.61-135.87,88.9-178.22c-8.87-7.01-17.78-14.04-26.73-21.11c63.97-40.38,136.04-60.06,209.3-56.81
		c-4.21-9.17-8.44-18.38-12.69-27.65c73.12,6.93,223.06,58.46,242.86,63.56c89.15,38.26,123.22,115.55,154.96,189.27
		c-15.15-12.45-30.42-24.99-45.8-37.64c3.28,32.64,18.47,103.06-25.57,179.39c0-87.17-24.13-120.69-24.13-120.69l-57.17,72.89
		l4.07-84.84c-84.5-14.96-103.26,94.85-103.26,94.85s-16.54-52.5-7.26-98.28c-50.52,2.72-52.94,58.05-52.94,58.05
		s-16.18-64.25-9.08-71.36c7.11-7.11-61.23,10.96-61.23,10.96s-51.81-20.94-58.27,17.89c-4.19,1.15-84.71-22.79-84.71-22.79
		s-56,75.32-69.77,133.14c-30.25-61.06-27.43-114.53-27.43-114.53S287.68,398.68,276.35,403.31" class="st28" id="Fill-17_00000150824230044834430490000000180565681329639823_"></path>
	<path d="M701.53,121.34c0,0,26.75,22.39,41.57,55.66l59.6,25.24c0,0,8.47-26.45,44.77-24.64
		c0,0-27.83-29.04-68.37-3.63C779.11,173.98,764.93,126.18,701.53,121.34z" class="st29"></path>
	<path d="M856.26,374.87c17.9,47.69-24.81,93.78-24.81,93.78c6.42-30.5-28.84-98.02-28.84-98.02
		c4.74,54.45-52.24,101.65-52.24,101.65c27.83-71.39,6.66-90.45,6.66-90.45c-4.24,72.61-33.01,90.58-33.01,90.58
		c3.84-41.85-20.68-114.25-20.68-114.25c-3.52,73.82-33.21,115.56-33.21,115.56c13.98-94.16,3.2-95.54,3.2-95.54
		c-0.11,84.12-44.99,106.2-44.99,106.2c43.36-94.43,1.31-122.79,1.31-122.79c-42.35,32.03-26.92,108.87-26.92,108.87
		c-31.49-33.54-35.03-98.4-35.03-98.4c-14.52,14.52,0.55,88.57,0.55,88.57c-17.1-17.52-38.02-111.56-38.02-111.56
		S823.28,287.03,856.26,374.87z" class="st30"></path>
	<path d="M572.75,367.15c0,0-44.6,52.22-34.65,113.93c0,0-35.26-43.4-31.2-102.05c0,0-23.07,69.78-12,95.19
		c0,0-16.75-11.08-20.27-84.89c0,0-32.89,47.48-29.04,89.33c0,0-15.59-6.94-19.83-79.55c0,0-21.77,8.54-6.29,90.68
		c0,0-37.07-27.66-32.33-82.11c0,0-28.3,59.35-25.1,87.15c0,0-16.74-45.84-0.23-130.11L572.75,367.15z" class="st30"></path>
	<path d="M307.77,388.44c0,0,1.99,87.23,32.48,130.14c0,0-20.37-104.12,15.93-130.14H307.77z" class="st29"></path>
</g>
</svg>
