<svg viewBox="0 0 965.16 607.69" xmlns:xlink="http://www.w3.org/1999/xlink" xmlns="http://www.w3.org/2000/svg"><defs><style>.cls-1{fill:#a5d7d3;opacity:0.8;}.cls-2{fill:#a35638;}.cls-3{fill:#6fb98f;}.cls-4{fill:#f59a00;}.cls-5{fill:#009e8f;}.cls-6{fill:#fff;}.cls-7{fill:#383838;}.cls-8{fill:#fab600;}.cls-9{fill:#e5dfdc;}.cls-10{clip-path:url(#clip-path);}.cls-11{fill:#007e97;}.cls-12{fill:#6c4f3d;}.cls-13{fill:#a3844f;}.cls-14{fill:#594218;}.cls-15{fill:none;stroke:#594218;stroke-miterlimit:10;stroke-width:34.64px;opacity:0.4;}</style><clipPath id="clip-path"><path d="M435.55,356.54a45.88,45.88,0,0,0,1.63-12.13c0-26-21.63-47.05-48.31-47.05s-48.31,21.06-48.31,47.05a45.92,45.92,0,0,0,1.64,12.19c13.39,10.17,29.62,13.63,46.67,13.49C405.48,370.23,422,366.76,435.55,356.54Z" class="cls-1"></path></clipPath></defs><title>log in</title><g id="Layer_2"><g id="Layer_1-2"><g id="log_in"><path d="M965.16,467.78l-6.9,56.74s-50.31-68.13-123-80.3c-115.39-16.36-181.81,2.12-337.32,24.3C383.47,490,241.59,502.67,176.21,479.22s-117.85-65.28-117.92-83c33.79,31.79,100.33,76.43,156.25,81s111.93-.78,129.09-5.34c-13.79-5-55.25-10-93.77-30.23S146.67,361.58,149.43,329.8c11.06,21.28,29.34,50.08,56.81,70,29.65,20.21,90.08,69.64,197.05,55s178.21-35.9,246.9-45.27S775.32,400.4,791,399c-4.12-11.58-38.92-62.32-18.27-86.38,7.53,10.88,18.62,65.38,45.66,79.74s69.51,19.53,94.1,35.81S965.16,467.78,965.16,467.78Z" class="cls-2"></path><path d="M222.43,488.21s-30.48,28.66-54,36.95c-22.53,10-68.75,3.81-69-.27,11.86-.4,47.8-1.57,64.23-9.17s44-30.59,44-30.59Z" class="cls-2"></path><path d="M681.7,306.92s14.93,30,28.93,37.67,34.27,7.41,39.12.77-3.44-29.08-20.88-35.5S681.7,306.92,681.7,306.92Z" class="cls-3"></path><path d="M83.66,388.65s28.22,18,44.21,17.39,33.19-11.32,33.92-19.51-17.94-23.16-36.19-19.65S83.66,388.65,83.66,388.65Z" class="cls-3"></path><path d="M0,477.18s32.56-7.79,43.23-19.71,14.93-31.72,9.56-37.94-29.12-3.21-39.29,12.35S0,477.18,0,477.18Z" class="cls-3"></path><path d="M77.74,512.65s18.44-27.94,18.08-43.93S85,435.35,76.85,434.5s-23.43,17.56-20.23,35.87S77.74,512.65,77.74,512.65Z" class="cls-3"></path><path d="M211.25,607.69s5.1-33.09-1.89-47.48S185.63,534.39,177.85,537s-14,25.73-3.43,41S211.25,607.69,211.25,607.69Z" class="cls-3"></path><path d="M267.68,334.91s-33.43,1.62-46.14,11.36S201,374.69,205.13,381.79s28,8.54,40.9-4.87S267.68,334.91,267.68,334.91Z" class="cls-3"></path><path d="M858.31,298.44s-32.09,9.49-42.13,21.95-13.24,32.47-7.55,38.39,29.25,1.67,38.58-14.39S858.31,298.44,858.31,298.44Z" class="cls-3"></path><path d="M956.7,497.31c-20.5-1.6-41.1.67-61.72-1.12s-41.07-6.36-61-12.32a.9.9,0,0,0,0-.56c-6-13.23-16.7-28.79-29.28-36.48-.68-.42-1.54,1-1.12,1.54,4.46,5.81,10.14,10.7,14.88,16.31A147,147,0,0,1,831.15,483l-2.26-.68c-22-6.89-42.77-16.74-63.13-27.36-12.6-6.58-24.37-14.55-36.26-22.3a54.09,54.09,0,0,0-9.62-19c.09-.06.18-.07.27-.17,8.25-9,15.94-23.05,16-35.5,0-1.37-1.61-.38-1.85.37-1.63,5.17-2.76,10.44-4.73,15.52-2.61,6.71-6.8,12.49-10.53,18.57,0,0,0,.06,0,.09-5.12-6.4-11.4-11.72-17.66-14.13-.84-.33-2.08,1.22-1.4,1.91,5.36,5.47,11.63,9.75,16.64,15.67,3.59,4.24,6,9.13,8.6,13.86a260.94,260.94,0,0,0-25.26-14.66c-1.34-.67-2.89,2-1.74,2.89a445.45,445.45,0,0,0,67.74,45,130.51,130.51,0,0,1-10.66,23.36C742.2,478.89,724,473,709.08,475.27c-.54.08-1.23,1.38-.45,1.53,7.14,1.39,14.51,1.33,21.71,2.7,8.41,1.6,16.45,4.69,24.38,7.88a77.76,77.76,0,0,1-24.43,25.2c-1.53,1-1.34,4.28.84,2.87,17.72-11.52,32.62-30.23,36.7-51.38a350.69,350.69,0,0,0,52.71,22.69c11,3.68,22.82,7.18,35,10.13-3.72,8.79-7.59,17.22-13.08,25.12-16.28-6.72-38.17-6.34-53,3.84-.48.32-1,2.21.05,1.86,8.15-2.56,15.67-5.58,24.26-6.54,9.36-1,18.4.44,27.41,2.81h0c-6.31,8.53-15,14.41-22.38,21.88-.85.87-1,3.48.8,2.68,18.28-8,34.69-31,38.25-51.12,32.44,7.65,67.46,11.18,98,2.91C956.74,500.09,958.33,497.44,956.7,497.31Z" class="cls-3"></path><path d="M902.94,438.66c-2.14,5.95-3.51,11.73-6.75,17.28-3,5.1-7.37,8.91-11.53,12.95-6-22.51-19.07-45.14-35.18-61.31a23.94,23.94,0,0,1-5,2c8.39,9.59,16.59,19,23.43,30.27-24.29-1-43.49-5.59-62.88-22.62-1.1-1-3,2-1.81,3,16.93,15.57,42.44,27.28,65.79,21.55,9.69,16.72,13.32,34.15,18.1,52.62.21.82,1.16-.28,1.16-.75a99.48,99.48,0,0,0-3.14-22.7c10.6-5.53,20.57-20.88,20.16-32.75C905.28,436.39,903.28,437.71,902.94,438.66Z" class="cls-3"></path><path d="M809.44,425.4s-25.36,1.48-33.51-21a70.23,70.23,0,0,1-3.77-27.22S816.18,388.25,809.44,425.4Z" class="cls-3"></path><path d="M834.09,535.44s-24.37-7.19-37.41,12.88A70.16,70.16,0,0,0,786.85,574S835.68,580.23,834.09,535.44Z" class="cls-3"></path><path d="M738.88,508.6s-13-13-28.21-4.83a50.92,50.92,0,0,0-15.16,12.87S724.33,537.57,738.88,508.6Z" class="cls-3"></path><path d="M855.68,416.69s-3.35-18.07-20.57-19.91a50.74,50.74,0,0,0-19.78,2.07S827.31,432.39,855.68,416.69Z" class="cls-3"></path><path d="M739.12,508.13s-21.32,6.48-21.19,27.47a61.59,61.59,0,0,0,5.17,23.54S761.89,540.17,739.12,508.13Z" class="cls-3"></path><path d="M855.05,414.15s-21.91-12.86-16.19-36.09a70.34,70.34,0,0,1,12-24.72S881.29,387,855.05,414.15Z" class="cls-3"></path><path d="M902.09,448.74s-18.43-14.11-8-33.46a69.12,69.12,0,0,1,16.8-19.81S933.15,428.77,902.09,448.74Z" class="cls-3"></path><path d="M821.32,465.83s-20.07,5.55-28.27-12.39A62,62,0,0,1,788,430.69S829,431.32,821.32,465.83Z" class="cls-3"></path><path d="M711.82,406.67s-20.08,5.55-28.28-12.4a62.23,62.23,0,0,1-5.07-22.74S719.48,372.15,711.82,406.67Z" class="cls-3"></path><path d="M731,398.7s-12.61-11.33-3.91-24.83a50.54,50.54,0,0,1,13.38-13.46S758.06,388.81,731,398.7Z" class="cls-3"></path><path d="M807.31,522.05s-10.18,18.16-28.71,11.37A62.21,62.21,0,0,1,758.87,521S788.18,492.32,807.31,522.05Z" class="cls-3"></path><path d="M732.8,479s-10.19,18.17-28.7,11.37A61.87,61.87,0,0,1,684.37,478S713.67,449.29,732.8,479Z" class="cls-3"></path><path d="M715.51,425.88s-18.09,18.24-37.87,4.06c-12.16-8.72-19.38-21.25-19.38-21.25S702.56,384.23,715.51,425.88Z" class="cls-3"></path><path d="M378.71,382.35l-4.86-4.51V365.42a3,3,0,0,0-6.05,0v12a2.66,2.66,0,0,0-.76.63l-4.34,5.17a2.83,2.83,0,1,0,4.33,3.63l1.26-1.5v1.26a2.82,2.82,0,1,0,5.64,0v-1l.94.87a2.82,2.82,0,0,0,3.84-4.14Z" class="cls-4"></path><path d="M414.79,382.35l-4.86-4.51V365.42a3,3,0,0,0-6.05,0v12a2.66,2.66,0,0,0-.76.63l-4.34,5.17a2.83,2.83,0,1,0,4.33,3.63l1.26-1.5v1.26a2.82,2.82,0,0,0,5.64,0v-1l.94.87a2.82,2.82,0,0,0,3.84-4.14Z" class="cls-4"></path><path d="M458.3,199.62c-3.82-1.51-20,16.13-20,16.13-19.34-7-35.9-9.17-49.4-9-13.5-.17-30.06,2-49.41,9,0,0-16.21-17.64-20-16.13s-23.21,104.81,13,147.41c14.81,17.41,35,22.9,56.4,22.73,20.85.17,41.59-5.32,56.4-22.73C481.5,304.43,462.11,201.12,458.3,199.62Z" class="cls-5"></path><path d="M424,223a36.17,36.17,0,0,0-35.16,27.73,36.17,36.17,0,1,0,0,16.85A36.16,36.16,0,1,0,424,223Z" class="cls-1"></path><path d="M399.48,258.26a26.38,26.38,0,1,0,26.38-26.38A26.39,26.39,0,0,0,399.48,258.26Z" class="cls-6"></path><path d="M408.91,260.32a18.89,18.89,0,1,0,18.88-18.89A18.88,18.88,0,0,0,408.91,260.32Z" class="cls-7"></path><path d="M424,252.54a4.77,4.77,0,1,0,4.77-4.77A4.78,4.78,0,0,0,424,252.54Z" class="cls-6"></path><path d="M378.26,258.26a26.38,26.38,0,1,1-26.38-26.38A26.39,26.39,0,0,1,378.26,258.26Z" class="cls-6"></path><path d="M370.51,260.32a18.89,18.89,0,1,1-18.88-18.89A18.88,18.88,0,0,1,370.51,260.32Z" class="cls-7"></path><path d="M353.79,252.54a4.77,4.77,0,1,1-4.77-4.77A4.78,4.78,0,0,1,353.79,252.54Z" class="cls-6"></path><polygon points="379.4 269.64 388.87 282.72 388.87 260.65 379.4 269.64" class="cls-8"></polygon><polygon points="388.87 260.65 388.87 282.72 398.34 269.64 388.87 260.65" class="cls-4"></polygon><path d="M435.55,356.54a45.88,45.88,0,0,0,1.63-12.13c0-26-21.63-47.05-48.31-47.05s-48.31,21.06-48.31,47.05a45.92,45.92,0,0,0,1.64,12.19c13.39,10.17,29.62,13.63,46.67,13.49C405.48,370.23,422,366.76,435.55,356.54Z" class="cls-9"></path><path d="M435.55,356.54a45.88,45.88,0,0,0,1.63-12.13c0-26-21.63-47.05-48.31-47.05s-48.31,21.06-48.31,47.05a45.92,45.92,0,0,0,1.64,12.19c13.39,10.17,29.62,13.63,46.67,13.49C405.48,370.23,422,366.76,435.55,356.54Z" class="cls-1"></path><g class="cls-10"><polygon points="369.26 316.64 360.89 316.64 365.17 320.92 369.26 316.64" class="cls-11"></polygon><polygon points="378.6 316.64 370.24 316.64 374.51 320.92 378.6 316.64" class="cls-11"></polygon><polygon points="387.94 316.64 379.58 316.64 383.85 320.92 387.94 316.64" class="cls-11"></polygon><polygon points="397.28 316.64 388.92 316.64 393.2 320.92 397.28 316.64" class="cls-11"></polygon><polygon points="406.63 316.64 398.27 316.64 402.54 320.92 406.63 316.64" class="cls-11"></polygon><polygon points="415.97 316.64 407.61 316.64 411.88 320.92 415.97 316.64" class="cls-11"></polygon><polygon points="425.31 316.64 416.95 316.64 421.22 320.92 425.31 316.64" class="cls-11"></polygon><polygon points="359.92 316.64 351.56 316.64 355.82 320.92 359.92 316.64" class="cls-11"></polygon><polygon points="373.93 311.05 365.57 311.05 369.84 315.33 373.93 311.05" class="cls-11"></polygon><polygon points="383.27 311.05 374.91 311.05 379.18 315.33 383.27 311.05" class="cls-11"></polygon><polygon points="392.61 311.05 384.25 311.05 388.53 315.33 392.61 311.05" class="cls-11"></polygon><polygon points="401.96 311.05 393.6 311.05 397.87 315.33 401.96 311.05" class="cls-11"></polygon><polygon points="411.3 311.05 402.94 311.05 407.21 315.33 411.3 311.05" class="cls-11"></polygon><polygon points="420.64 311.05 412.28 311.05 416.55 315.33 420.64 311.05" class="cls-11"></polygon><polygon points="364.59 311.05 356.23 311.05 360.5 315.33 364.59 311.05" class="cls-11"></polygon><polygon points="439.33 311.05 430.96 311.05 435.24 315.33 439.33 311.05" class="cls-12"></polygon><polygon points="364.59 299.88 356.23 299.88 360.5 304.15 364.59 299.88" class="cls-12"></polygon><polygon points="373.93 299.88 365.57 299.88 369.84 304.15 373.93 299.88" class="cls-11"></polygon><polygon points="383.27 299.88 374.91 299.88 379.18 304.15 383.27 299.88" class="cls-11"></polygon><polygon points="392.61 299.88 384.25 299.88 388.52 304.15 392.61 299.88" class="cls-11"></polygon><polygon points="401.96 299.88 393.6 299.88 397.87 304.15 401.96 299.88" class="cls-11"></polygon><polygon points="411.3 299.88 402.94 299.88 407.21 304.15 411.3 299.88" class="cls-11"></polygon><polygon points="420.64 299.88 412.28 299.88 416.55 304.15 420.64 299.88" class="cls-12"></polygon><polygon points="355.24 299.88 346.88 299.88 351.15 304.15 355.24 299.88" class="cls-12"></polygon><polygon points="439.33 299.88 430.96 299.88 435.24 304.15 439.33 299.88" class="cls-12"></polygon><polygon points="429.98 299.88 421.62 299.88 425.9 304.15 429.98 299.88" class="cls-12"></polygon><polygon points="369.26 305.47 360.89 305.47 365.17 309.74 369.26 305.47" class="cls-11"></polygon><polygon points="378.6 305.47 370.24 305.47 374.51 309.74 378.6 305.47" class="cls-11"></polygon><polygon points="387.94 305.47 379.58 305.47 383.85 309.74 387.94 305.47" class="cls-11"></polygon><polygon points="397.28 305.47 388.92 305.47 393.2 309.74 397.28 305.47" class="cls-11"></polygon><polygon points="406.63 305.47 398.27 305.47 402.54 309.74 406.63 305.47" class="cls-11"></polygon><polygon points="415.97 305.47 407.61 305.47 411.88 309.74 415.97 305.47" class="cls-11"></polygon><polygon points="359.92 305.47 351.56 305.47 355.82 309.74 359.92 305.47" class="cls-12"></polygon><polygon points="444 305.47 435.63 305.47 439.91 309.74 444 305.47" class="cls-12"></polygon><polygon points="434.65 305.47 426.29 305.47 430.57 309.74 434.65 305.47" class="cls-12"></polygon><polygon points="368.77 339 360.4 339 364.68 343.27 368.77 339" class="cls-11"></polygon><polygon points="378.11 339 369.75 339 374.02 343.27 378.11 339" class="cls-11"></polygon><polygon points="387.45 339 379.09 339 383.36 343.27 387.45 339" class="cls-11"></polygon><polygon points="396.79 339 388.43 339 392.7 343.27 396.79 339" class="cls-11"></polygon><polygon points="406.13 339 397.77 339 402.05 343.27 406.13 339" class="cls-11"></polygon><polygon points="415.48 339 407.12 339 411.39 343.27 415.48 339" class="cls-11"></polygon><polygon points="424.82 339 416.46 339 420.73 343.27 424.82 339" class="cls-11"></polygon><polygon points="359.42 339 351.06 339 355.33 343.27 359.42 339" class="cls-11"></polygon><polygon points="350.08 339 341.72 339 345.99 343.27 350.08 339" class="cls-11"></polygon><polygon points="443.5 339 435.15 339 439.42 343.27 443.5 339" class="cls-12"></polygon><polygon points="434.16 339 425.8 339 430.07 343.27 434.16 339" class="cls-11"></polygon><polygon points="345.9 333.41 337.54 333.41 341.81 337.68 345.9 333.41" class="cls-11"></polygon><polygon points="373.44 333.41 365.08 333.41 369.35 337.68 373.44 333.41" class="cls-11"></polygon><polygon points="382.78 333.41 374.42 333.41 378.69 337.68 382.78 333.41" class="cls-11"></polygon><polygon points="392.12 333.41 383.76 333.41 388.03 337.68 392.12 333.41" class="cls-11"></polygon><polygon points="401.46 333.41 393.1 333.41 397.38 337.68 401.46 333.41" class="cls-11"></polygon><polygon points="410.81 333.41 402.44 333.41 406.72 337.68 410.81 333.41" class="cls-11"></polygon><polygon points="420.15 333.41 411.79 333.41 416.06 337.68 420.15 333.41" class="cls-11"></polygon><polygon points="429.49 333.41 421.13 333.41 425.4 337.68 429.49 333.41" class="cls-11"></polygon><polygon points="364.1 333.41 355.73 333.41 360.01 337.68 364.1 333.41" class="cls-11"></polygon><polygon points="354.75 333.41 346.39 333.41 350.66 337.68 354.75 333.41" class="cls-11"></polygon><polygon points="438.83 333.41 430.47 333.41 434.74 337.68 438.83 333.41" class="cls-11"></polygon><polygon points="345.41 322.23 337.05 322.23 341.32 326.5 345.41 322.23" class="cls-12"></polygon><polygon points="364.1 322.23 355.73 322.23 360.01 326.5 364.1 322.23" class="cls-11"></polygon><polygon points="373.44 322.23 365.08 322.23 369.35 326.5 373.44 322.23" class="cls-11"></polygon><polygon points="382.78 322.23 374.42 322.23 378.69 326.5 382.78 322.23" class="cls-11"></polygon><polygon points="392.12 322.23 383.76 322.23 388.03 326.5 392.12 322.23" class="cls-11"></polygon><polygon points="401.46 322.23 393.1 322.23 397.38 326.5 401.46 322.23" class="cls-11"></polygon><polygon points="410.81 322.23 402.45 322.23 406.72 326.5 410.81 322.23" class="cls-11"></polygon><polygon points="420.15 322.23 411.79 322.23 416.06 326.5 420.15 322.23" class="cls-11"></polygon><polygon points="354.75 322.23 346.39 322.23 350.66 326.5 354.75 322.23" class="cls-11"></polygon><polygon points="429.49 322.23 421.13 322.23 425.4 326.5 429.49 322.23" class="cls-11"></polygon><polygon points="368.77 327.82 360.4 327.82 364.68 332.09 368.77 327.82" class="cls-11"></polygon><polygon points="378.11 327.82 369.75 327.82 374.02 332.09 378.11 327.82" class="cls-11"></polygon><polygon points="387.45 327.82 379.09 327.82 383.36 332.09 387.45 327.82" class="cls-11"></polygon><polygon points="396.79 327.82 388.43 327.82 392.7 332.09 396.79 327.82" class="cls-11"></polygon><polygon points="406.13 327.82 397.77 327.82 402.05 332.09 406.13 327.82" class="cls-11"></polygon><polygon points="415.48 327.82 407.12 327.82 411.39 332.09 415.48 327.82" class="cls-11"></polygon><polygon points="424.82 327.82 416.46 327.82 420.73 332.09 424.82 327.82" class="cls-11"></polygon><polygon points="359.42 327.82 351.06 327.82 355.33 332.09 359.42 327.82" class="cls-11"></polygon><polygon points="350.08 327.82 341.72 327.82 345.99 332.09 350.08 327.82" class="cls-11"></polygon><polygon points="443.5 327.82 435.15 327.82 439.42 332.09 443.5 327.82" class="cls-12"></polygon><polygon points="434.16 327.82 425.8 327.82 430.07 332.09 434.16 327.82" class="cls-11"></polygon><polygon points="359.43 361.35 351.06 361.35 355.34 365.62 359.43 361.35" class="cls-11"></polygon><polygon points="368.77 361.35 360.4 361.35 364.68 365.62 368.77 361.35" class="cls-11"></polygon><polygon points="378.11 361.35 369.75 361.35 374.02 365.62 378.11 361.35" class="cls-11"></polygon><polygon points="387.45 361.35 379.09 361.35 383.36 365.62 387.45 361.35" class="cls-11"></polygon><polygon points="396.79 361.35 388.43 361.35 392.7 365.62 396.79 361.35" class="cls-11"></polygon><polygon points="406.14 361.35 397.77 361.35 402.05 365.62 406.14 361.35" class="cls-11"></polygon><polygon points="415.48 361.35 407.12 361.35 411.39 365.62 415.48 361.35" class="cls-11"></polygon><polygon points="424.82 361.35 416.46 361.35 420.73 365.62 424.82 361.35" class="cls-11"></polygon><polygon points="438.34 355.76 429.98 355.76 434.25 360.03 438.34 355.76" class="cls-11"></polygon><polygon points="364.1 355.76 355.74 355.76 360.01 360.03 364.1 355.76" class="cls-11"></polygon><polygon points="373.44 355.76 365.08 355.76 369.35 360.03 373.44 355.76" class="cls-11"></polygon><polygon points="382.78 355.76 374.42 355.76 378.69 360.03 382.78 355.76" class="cls-11"></polygon><polygon points="392.12 355.76 383.76 355.76 388.03 360.03 392.12 355.76" class="cls-11"></polygon><polygon points="401.46 355.76 393.1 355.76 397.38 360.03 401.46 355.76" class="cls-11"></polygon><polygon points="410.81 355.76 402.45 355.76 406.72 360.03 410.81 355.76" class="cls-11"></polygon><polygon points="420.15 355.76 411.79 355.76 416.06 360.03 420.15 355.76" class="cls-11"></polygon><polygon points="354.75 355.76 346.39 355.76 350.66 360.03 354.75 355.76" class="cls-11"></polygon><polygon points="345.41 355.76 337.05 355.76 341.32 360.03 345.41 355.76" class="cls-11"></polygon><polygon points="429.5 355.76 421.13 355.76 425.4 360.03 429.5 355.76" class="cls-11"></polygon><polygon points="438.62 344.58 430.26 344.58 434.53 348.86 438.62 344.58" class="cls-11"></polygon><polygon points="354.75 344.58 346.39 344.58 350.67 348.86 354.75 344.58" class="cls-11"></polygon><polygon points="364.1 344.58 355.74 344.58 360.01 348.86 364.1 344.58" class="cls-11"></polygon><polygon points="373.44 344.58 365.08 344.58 369.35 348.86 373.44 344.58" class="cls-11"></polygon><polygon points="382.78 344.58 374.42 344.58 378.69 348.86 382.78 344.58" class="cls-11"></polygon><polygon points="392.12 344.58 383.76 344.58 388.03 348.86 392.12 344.58" class="cls-11"></polygon><polygon points="401.47 344.58 393.1 344.58 397.38 348.86 401.47 344.58" class="cls-11"></polygon><polygon points="410.81 344.58 402.45 344.58 406.72 348.86 410.81 344.58" class="cls-11"></polygon><polygon points="345.41 344.58 337.05 344.58 341.32 348.86 345.41 344.58" class="cls-11"></polygon><polygon points="429.5 344.58 421.13 344.58 425.4 348.86 429.5 344.58" class="cls-11"></polygon><polygon points="420.15 344.58 411.79 344.58 416.06 348.86 420.15 344.58" class="cls-11"></polygon><polygon points="359.43 350.17 351.06 350.17 355.34 354.45 359.43 350.17" class="cls-11"></polygon><polygon points="368.77 350.17 360.4 350.17 364.68 354.45 368.77 350.17" class="cls-11"></polygon><polygon points="378.11 350.17 369.75 350.17 374.02 354.45 378.11 350.17" class="cls-11"></polygon><polygon points="387.45 350.17 379.09 350.17 383.36 354.45 387.45 350.17" class="cls-11"></polygon><polygon points="396.79 350.17 388.43 350.17 392.7 354.45 396.79 350.17" class="cls-11"></polygon><polygon points="406.14 350.17 397.77 350.17 402.05 354.45 406.14 350.17" class="cls-11"></polygon><polygon points="415.48 350.17 407.12 350.17 411.39 354.45 415.48 350.17" class="cls-11"></polygon><polygon points="350.08 350.17 341.72 350.17 345.99 354.45 350.08 350.17" class="cls-11"></polygon><polygon points="443.01 350.17 434.65 350.17 438.93 354.45 443.01 350.17" class="cls-11"></polygon><polygon points="434.16 350.17 425.8 350.17 430.07 354.45 434.16 350.17" class="cls-11"></polygon><polygon points="424.82 350.17 416.46 350.17 420.73 354.45 424.82 350.17" class="cls-11"></polygon></g><path d="M339,359.07s-57.73-21.79-27.6-87.39C311.42,271.68,359.4,323.15,339,359.07Z" class="cls-11"></path><path d="M440,359.07s57.72-21.79,27.59-87.39C467.57,271.68,419.59,323.15,440,359.07Z" class="cls-11"></path><path d="M390.94,26.05,192.34,185.48l78,254.7,246.82-2,74.51-255.95Zm-1.47,314.81a74.57,74.57,0,0,1-10.73-.74,77.13,77.13,0,0,1,0-152.74,74.57,74.57,0,0,1,10.73-.74,77.11,77.11,0,1,1,0,154.22Z" class="cls-13"></path><path d="M159.22,233.1a26.06,26.06,0,0,1-12.61-48.85C161.67,174,293.84,69.81,374.75,5.64a26,26,0,0,1,32.34,0l228.84,181a26,26,0,1,1-32.32,40.85L391,59.27C177.61,228.38,172.9,229.94,167.46,231.75A25.76,25.76,0,0,1,159.22,233.1Zm-8.28-50.75h0Zm.05,0h0Z" class="cls-14"></path><path d="M545.8,462.38H238.25a22.27,22.27,0,0,1-22.2-22.2h0a22.27,22.27,0,0,1,22.2-22.2H545.8a22.27,22.27,0,0,1,22.2,22.2h0A22.27,22.27,0,0,1,545.8,462.38Z" class="cls-14"></path><circle r="98.29" cy="262.44" cx="388.8" class="cls-15"></circle></g></g></g></svg>